HIERARCHY
ROOT Hips
{
    OFFSET 0.000000 0.000000 0.000000
    CHANNELS 6 Xposition Yposition Zposition Zrotation Xrotation Yrotation
    JOINT Spine
    {
        OFFSET -0.000000 7.236184 0.000000
        CHANNELS 3 Zrotation Xrotation Yrotation
        JOINT Spine1
        {
            OFFSET -0.000000 20.420147 0.000000
            CHANNELS 3 Zrotation Xrotation Yrotation
            JOINT Neck
            {
                OFFSET -0.000000 20.336288 1.848754
                CHANNELS 3 Zrotation Xrotation Yrotation
                JOINT Head
                {
                    OFFSET -0.000000 12.354461 -1.764923
                    CHANNELS 3 Zrotation Xrotation Yrotation
                    End Site
                    {
                        OFFSET -0.000000 22.061537 0.000000
                    }
                }
            }
            JOINT LeftShoulder
            {
                OFFSET 3.573296 18.396038 -0.314103
                CHANNELS 3 Zrotation Xrotation Yrotation
                JOINT LeftArm
                {
                    OFFSET 10.880760 0.000000 0.000000
                    CHANNELS 3 Zrotation Xrotation Yrotation
                    JOINT LeftForeArm
                    {
                        OFFSET 27.185530 0.000000 0.000000
                        CHANNELS 3 Zrotation Xrotation Yrotation
                        JOINT LeftHand
                        {
                            OFFSET 27.825975 0.000000 0.000000
                            CHANNELS 3 Zrotation Xrotation Yrotation
                            End Site
                            {
                                OFFSET 13.236923 0.000000 0.000000
                            }
                        }
                    }
                }
            }
            JOINT RightShoulder
            {
                OFFSET -3.474926 18.396038 -0.314103
                CHANNELS 3 Zrotation Xrotation Yrotation
                JOINT RightArm
                {
                    OFFSET -10.880760 0.000000 0.000000
                    CHANNELS 3 Zrotation Xrotation Yrotation
                    JOINT RightForeArm
                    {
                        OFFSET -27.185530 0.000000 0.000000
                        CHANNELS 3 Zrotation Xrotation Yrotation
                        JOINT RightHand
                        {
                            OFFSET -27.825975 0.000000 0.000000
                            CHANNELS 3 Zrotation Xrotation Yrotation
                            End Site
                            {
                                OFFSET -13.236923 0.000000 0.000000
                            }
                        }
                    }
                }
            }
        }
    }
    JOINT LeftUpLeg
    {
        OFFSET 8.824615 0.000000 0.000000
        CHANNELS 3 Zrotation Xrotation Yrotation
        JOINT LeftLeg
        {
            OFFSET -0.000000 -35.111282 0.000000
            CHANNELS 3 Zrotation Xrotation Yrotation
            JOINT LeftFoot
            {
                OFFSET -0.000000 -42.324711 0.000000
                CHANNELS 3 Zrotation Xrotation Yrotation
                JOINT LeftToeBase
                {
                    OFFSET -0.000000 -5.735999 13.236923
                    CHANNELS 3 Zrotation Xrotation Yrotation
                    End Site
                    {
                        OFFSET -0.000000 0.000000 3.529846
                    }
                }
            }
        }
    }
    JOINT RightUpLeg
    {
        OFFSET -8.824615 0.000000 0.000000
        CHANNELS 3 Zrotation Xrotation Yrotation
        JOINT RightLeg
        {
            OFFSET -0.000000 -35.111282 0.000000
            CHANNELS 3 Zrotation Xrotation Yrotation
            JOINT RightFoot
            {
                OFFSET -0.000000 -42.324711 0.000000
                CHANNELS 3 Zrotation Xrotation Yrotation
                JOINT RightToeBase
                {
                    OFFSET -0.000000 -5.735999 13.236923
                    CHANNELS 3 Zrotation Xrotation Yrotation
                    End Site
                    {
                        OFFSET -0.000000 0.000000 3.529846
                    }
                }
            }
        }
    }
}
MOTION
Frames:    4
Frame Time:    0.008333
-2.803681    83.909874    112.183823    -3.242181    -5.191438    -179.794586    -3.610072    -10.300535    0.680841    0.364732    8.202198    0.980244    1.756272    2.709824    -1.789247    5.945619    -15.994773    -0.426893    -4.049048    19.225950    -1.587911    -35.472725    46.583092    -46.042252    -0.764431    -4.343935    -13.459575    17.515064    -4.319135    0.747021    10.742082    20.398714    -5.149846    28.182432    47.852798    46.781239    -1.193442    -7.431449    19.312075    -14.729909    -7.021431    -1.626501    -2.215978    -3.894114    -7.080253    -0.781669    8.893447    1.761119    -2.829926    -10.339357    -7.079998    -0.590173    1.216111    0.652770    -2.730484    1.684750    2.982167    2.555906    1.628659    -1.931560    -3.720698    -8.358212    -11.631472    0.391834    -0.300456    -0.423974    
-2.804058    83.909134    112.176804    -3.248164    -5.235719    -179.775192    -3.599273    -10.291622    0.692401    0.337617    8.206639    0.992389    1.756015    2.657039    -1.809744    5.932533    -16.039566    -0.450420    -4.040111    19.219358    -1.625327    -35.396626    46.533600    -46.059601    -0.777764    -4.264456    -13.488065    17.517303    -4.257849    0.639995    10.740947    20.402853    -5.117150    28.134588    47.881218    46.817722    -1.176544    -7.551711    19.465656    -14.663441    -7.152819    -1.557338    -2.224660    -3.918745    -7.131852    -0.784520    8.865088    1.764623    -2.791536    -10.320457    -7.049263    -0.609173    1.224449    0.673775    -2.738852    1.656787    2.961836    2.558687    1.616202    -1.931191    -3.723891    -8.364391    -11.631088    0.392664    -0.300414    -0.424872    
-2.804512    83.908310    112.169579    -3.254149    -5.279380    -179.756027    -3.587718    -10.282581    0.703882    0.308785    8.210140    1.004683    1.757772    2.605539    -1.829442    5.917504    -16.082573    -0.474006    -4.028784    19.213207    -1.661688    -35.323822    46.481834    -46.076340    -0.791933    -4.183734    -13.518717    17.522915    -4.195325    0.533836    10.740747    20.406919    -5.084221    28.087305    47.909294    46.852303    -1.160398    -7.670720    19.621220    -14.593301    -7.282535    -1.490402    -2.233653    -3.942956    -7.184682    -0.787178    8.837463    1.769093    -2.753225    -10.302199    -7.018123    -0.628049    1.232659    0.694643    -2.747320    1.629725    2.942048    2.561547    1.603452    -1.931039    -3.727011    -8.370713    -11.630835    0.393443    -0.300553    -0.425714    
-2.805098    83.907379    112.161995    -3.260078    -5.322009    -179.737106    -3.576638    -10.273862    0.715212    0.281493    8.213311    1.016692    1.758939    2.555163    -1.848255    5.900533    -16.121746    -0.497304    -4.016377    19.206211    -1.696638    -35.256161    46.427143    -46.090725    -0.807010    -4.102163    -13.554857    17.534781    -4.131795    0.429362    10.738840    20.410503    -5.051153    28.041368    47.936745    46.884686    -1.145886    -7.788168    19.780579    -14.516252    -7.409909    -1.427590    -2.243115    -3.966222    -7.239857    -0.789444    8.810745    1.775512    -2.715213    -10.284996    -6.986512    -0.646797    1.240675    0.715368    -2.755742    1.603946    2.922939    2.564294    1.590469    -1.932130    -3.729671    -8.377346    -11.629785    0.394061    -0.300612    -0.426384    
